<svg xmlns="http://www.w3.org/2000/svg" width="64" height="64" viewBox="0 0 64 64">
  <defs>
    <linearGradient id="gradient" x1="0%" y1="0%" x2="100%" y2="100%">
      <stop offset="0%" stop-color="#4a00e0" />
      <stop offset="100%" stop-color="#8e2de2" />
    </linearGradient>
  </defs>
  <circle cx="32" cy="32" r="30" fill="url(#gradient)" stroke="#ffffff" stroke-width="2" />
  <path d="M32 18c-7.732 0-14 6.268-14 14 0 7.732 6.268 14 14 14 7.732 0 14-6.268 14-14 0-7.732-6.268-14-14-14zm0 4c5.523 0 10 4.477 10 10 0 5.523-4.477 10-10 10-5.523 0-10-4.477-10-10 0-5.523 4.477-10 10-10zm0 4c-3.314 0-6 2.686-6 6s2.686 6 6 6 6-2.686 6-6-2.686-6-6-6zm0 3c1.657 0 3 1.343 3 3s-1.343 3-3 3-3-1.343-3-3 1.343-3 3-3z" fill="white" />
</svg>